
<svg width="346" height="205" viewBox="0 0 346 205" xmlns="http://www.w3.org/2000/svg" preserveAspectRatio="none">

    <g>
        <title>REWE Abholservice logo</title>
        <rect fill="none" id="canvas_background" height="402" width="582" y="-1" x="-1"/>
    </g>
    <g>
        <title>Layer 1</title>
        <g stroke="null" fill="none" id="REWE-Header">
            <g stroke="null" id="atoms/logos/logo_REWE_Abholservice_redBG">
                <g stroke="null" fill="#FFFFFE" id="Schriftzug">
                    <path stroke="null" id="Combined-Shape" d="m76.145802,53.823342c5.307301,0 7.559422,-3.288098 7.559422,-10.466544c0,-7.14958 -2.25212,-10.482289 -7.559422,-10.482289l-5.007374,0l0,20.948834l5.007374,0zm40.125542,49.618007c-3.341799,0 -4.740278,-2.023243 -4.740278,-6.981633l0,-76.135352c0,-4.992504 1.39848,-7.081351 4.740278,-7.081351l30.573996,0c3.363983,0 4.78997,2.088848 4.78997,7.081351l0,6.029055c0,4.890161 -1.425988,6.98032 -4.78997,6.98032l-17.608776,0l0,14.93946l14.861509,0c3.439408,0 4.868058,2.056046 4.868058,7.133835l0,5.46748c0,4.912466 -1.42865,7.015747 -4.868058,7.015747l-14.861509,0l0,15.407876l20.280618,0c3.389716,0 4.85741,2.05867 4.85741,7.213872l0,5.947705c0,4.958389 -1.467694,6.981633 -4.85741,6.981633l-33.245838,0zm127.647654,0c-3.313403,0 -4.602737,-1.784443 -4.602737,-6.736272l0,-76.593272c0,-5.085662 1.289334,-6.868793 4.602737,-6.868793l30.951124,0c3.387054,0 4.631133,1.783131 4.631133,6.868793l0,6.505344c0,4.869167 -1.244079,6.71659 -4.631133,6.71659l-17.776487,0l0,14.93946l15.081574,0c3.403914,0 4.603625,1.842175 4.603625,6.898971l0,5.998877c0,4.903281 -1.199711,6.719214 -4.603625,6.719214l-15.081574,0l0,15.407876l20.396862,0c3.456268,0 4.738504,1.880225 4.738504,6.88585l0,6.521089c0,4.951829 -1.282236,6.736272 -4.738504,6.736272l-33.571499,0zm-185.40948,0c-3.323164,0 -4.738504,-2.023243 -4.738504,-6.981633l0,-76.135352c0,-4.992504 1.41534,-7.081351 4.738504,-7.081351l17.468573,0c18.881251,0 26.037811,10.51378 26.037811,28.438245c0,10.92184 -3.990459,20.063173 -12.853413,24.61875l13.965275,28.51041c0.846542,1.726711 1.197936,3.099157 1.197936,4.291847c0,2.898407 -2.290277,4.339083 -4.837001,4.339083l-10.326211,0c-3.042758,0 -4.221173,-1.784443 -6.36681,-6.904219l-11.47623,-27.187823l-0.181021,0l0,27.11041c0,4.958389 -1.425988,6.981633 -4.856522,6.981633l-7.772388,0zm153.24356,-38.759148l0.243137,0l5.504295,-44.570396c0.628251,-5.085662 2.040041,-6.868793 6.004767,-6.868793l5.520268,0c2.920302,0 4.572567,1.668979 4.572567,5.559327c0,0.898782 -0.079862,1.898595 -0.243137,3.045362l-12.165709,74.392896c-0.737396,5.02137 -1.859907,7.200752 -6.051797,7.200752l-6.621482,0c-3.764182,0 -4.846761,-1.949766 -5.695965,-6.981633l-7.595803,-48.536845l-0.140203,0l-7.692526,48.614258c-0.76313,5.119776 -1.843935,6.904219 -5.587707,6.904219l-6.636567,0c-4.274414,0 -5.336584,-2.023243 -6.112137,-6.981633l-12.082297,-74.612015c-0.148189,-1.146767 -0.340746,-2.14658 -0.340746,-3.045362c0,-3.890348 1.722366,-5.559327 4.656866,-5.559327l6.567353,0c3.984247,0 5.419996,1.783131 6.052684,6.868793l5.483886,44.570396l0.141978,0l7.019019,-44.570396c0.801286,-5.085662 2.218401,-6.868793 5.987907,-6.868793l6.209747,0c3.7278,0 5.160887,1.783131 6.00033,6.868793l7.001272,44.570396zm-139.356124,127.216537c0.045619,0.472195 0,0.876922 -0.136858,1.214195c-0.136858,0.269831 -0.364954,0.40474 -0.684297,0.40474l-2.05289,0c-0.410582,0 -0.684297,-0.101188 -0.821154,-0.303552c-0.182477,-0.202364 -0.387768,-0.742 -0.615863,-1.618936c-0.045619,-0.202364 -0.114052,-0.623951 -0.205291,-1.264789c-0.091238,-0.640825 -0.114052,-0.994958 -0.068433,-1.062413l0,-0.40474c0,-0.067455 -0.011403,-0.118049 -0.034217,-0.151769c-0.022805,-0.033734 -0.011403,-0.084328 0.034217,-0.151783l-0.068424,-0.404727l0,-0.101188l-0.615872,-5.059158c-0.045619,-0.539637 -0.102641,-1.29851 -0.171074,-2.276621c-0.068424,-0.978098 -0.102641,-1.669517 -0.102641,-2.074244c0,-0.269831 -0.034217,-0.708279 -0.10265,-1.315384c-0.068424,-0.607104 -0.102641,-1.180475 -0.102641,-1.720124c-0.045619,-0.674546 -0.114052,-1.484013 -0.205291,-2.42839c-0.091238,-0.944377 -0.159672,-1.618923 -0.205291,-2.023663l-3.900489,0c-0.638678,0 -1.254541,0.033734 -1.847599,0.101188l-0.958012,-0.101188l-0.205291,2.630767c-0.182486,1.146741 -0.273724,1.922475 -0.273724,2.327202c0,-0.067455 -0.045619,0.438461 -0.136858,1.517747l-0.136858,1.618936c-0.091238,0.674559 -0.136858,1.315384 -0.136858,1.922475c-0.091238,1.214208 -0.136858,1.787579 -0.136858,1.720124l-0.342148,3.54141c-0.182486,2.428404 -0.364962,3.777495 -0.547439,4.047326c-0.091238,0.404727 -0.182477,0.674546 -0.273724,0.809455c-0.319334,0.337286 -0.638669,0.505916 -0.958012,0.505916l-1.710742,0c-0.136858,0 -0.228096,-0.033721 -0.273715,-0.101175l-0.10265,0c-0.022805,0 -0.034217,-0.033734 -0.034217,-0.101188c-0.091238,0 -0.182477,-0.101175 -0.273715,-0.303552c-0.228096,-0.404727 -0.273715,-0.843189 -0.136858,-1.315371c0,-0.876936 0.045619,-1.585202 0.136858,-2.124852c0.091238,-0.53965 0.159672,-1.197335 0.205291,-1.973069c0.045619,-0.775747 0.114044,-1.433419 0.205291,-1.973069c0,-0.134909 0.022805,-0.354146 0.068424,-0.657698c0.045619,-0.303552 0.091238,-0.792594 0.136858,-1.467153l0,-0.202364c0.045619,-0.269818 0.10265,-0.691419 0.171074,-1.264789c0.068433,-0.57337 0.10265,-0.994971 0.10265,-1.264789c0.045619,-0.067455 0.068424,-0.185503 0.068424,-0.354146l0,-0.354133c0.045619,-0.202364 0.079836,-0.455322 0.10265,-0.758874c0.022805,-0.303552 0.034217,-0.522776 0.034217,-0.657698c0.045619,-0.202364 0.114044,-0.758861 0.205282,-1.669517c0.091247,-0.910656 0.25091,-2.310342 0.479015,-4.199109l0.410573,-5.56506l2.326614,-22.260294c0.091238,-1.686403 0.250901,-3.67632 0.479006,-5.969814l0.205291,-2.731943l0,-0.404727c0.045619,-0.067468 0.068424,-0.371007 0.068424,-0.910656c0,-0.134909 0.022814,-0.236098 0.068433,-0.303552l0.068424,-0.404727l0.615872,-4.452054c0.045619,-0.134922 0.114044,-0.944377 0.205291,-2.428404l0.136858,-2.023663c0.045619,-0.134909 0.250901,-0.472182 0.615863,-1.011832l0.205291,-0.202364l0.273715,-0.202364c0.045619,0 0.171074,-0.016873 0.376365,-0.050594c0.205291,-0.033734 0.330746,-0.01686 0.376365,0.050594l0.684297,-0.101188l1.505451,0c0.319343,0 0.638678,0.168643 0.958021,0.505916c0.228096,0.134909 0.364954,0.337273 0.410573,0.607104c0.045619,0.067455 0.068433,0.151769 0.068433,0.252958c0,0.101175 0.022805,0.185503 0.068424,0.252958c-0.045619,0.134909 -0.057022,0.252958 -0.034208,0.354133l0.034208,0.151783l0.205291,3.339047c0,1.011832 0.022814,1.652656 0.068433,1.922475l0.958012,10.523043l0.136858,1.618936l0.136866,1.517747l0.068424,1.517747c0.091238,1.079286 0.136858,1.551481 0.136858,1.416559c0.228105,2.428417 0.695699,7.133389 1.40281,14.115048c0.707111,6.981685 1.243138,11.619189 1.608101,13.912684l0.342148,2.023663l1.026445,11.534888l0.205291,2.226027l0.205282,2.023663zm-6.637676,-25.801705l-0.205291,-2.42839c0,-0.202364 -0.011403,-0.421601 -0.034208,-0.657698c-0.022814,-0.236098 -0.057031,-0.421588 -0.10265,-0.556497c0,-0.067468 0.011403,-0.185503 0.034217,-0.354146c0.022814,-0.168643 0.011403,-0.387867 -0.034217,-0.657698c-0.364962,-3.170417 -0.615863,-5.767424 -0.752721,-7.7911l-0.342148,-3.035495c-0.228105,-1.484027 -0.319343,-2.259748 -0.273724,-2.327215l0,-0.101175c-0.182477,-1.68639 -0.319334,-3.372767 -0.410573,-5.059158c-0.182486,-2.428404 -0.273724,-3.912417 -0.273724,-4.452054l-0.136858,-1.821299l-0.136858,-4.350878l-0.205291,0c0,1.281663 -0.068433,2.731943 -0.205291,4.350878c0,0.742013 -0.068424,1.618923 -0.205291,2.630754l-0.136858,2.428404c-0.045619,0.134909 -0.045619,0.185503 0,0.151769c0.045619,-0.033721 0.045619,0.01686 0,0.151783l-0.410573,4.856781c-0.045619,0.134909 -0.10265,0.55651 -0.171074,1.264789c-0.068433,0.708293 -0.10265,1.197335 -0.10265,1.467153l-0.136858,1.214208c0,0.134909 -0.022814,0.286679 -0.068433,0.455322c-0.045619,0.168643 -0.045619,0.320412 0,0.455322l-0.684297,6.374541l-0.342148,3.440222l-0.273715,3.237858c0,0.202377 -0.045619,0.57337 -0.136858,1.11302l1.368593,-0.101188l2.326605,0.101188l2.05289,0zm11.193286,25.498153c-0.136858,-0.202364 -0.205291,-0.944364 -0.205291,-2.226027l0.136866,-3.946138l0,-8.701757c0,-0.809468 0.022805,-1.551468 0.068424,-2.226027l0,-3.440235l0.136858,-4.553242l-0.068424,-2.529566l0.068424,-3.743787c-0.228096,-6.205925 -0.342148,-12.580401 -0.342148,-19.123611l-0.136858,-4.148515l0,-5.362697c0,-0.134922 -0.022805,-0.320412 -0.068424,-0.55651c-0.045619,-0.236098 -0.068433,-0.55651 -0.068433,-0.961237l0,-1.416572c0,-0.202364 -0.022814,-0.455322 -0.068433,-0.758874c-0.045619,-0.303552 -0.068424,-0.657685 -0.068424,-1.062426l0,-0.404727l-0.068433,-1.315384l0.068433,-0.910643c0,-0.472195 0.045619,-0.843202 0.136858,-1.11302c0.045619,-0.202364 0.182477,-0.371007 0.410582,-0.505916c0.182477,-0.134909 0.342148,-0.202364 0.479006,-0.202364l2.531896,0c0.50182,0 0.946609,-0.033734 1.334377,-0.101188c0.387768,-0.067455 0.65008,-0.101175 0.786947,-0.101175c0.866773,-0.067455 1.89321,0.101175 3.079335,0.505916l0.752721,0.202364c0.729925,0.404727 1.596689,1.349104 2.600329,2.833131c0.410582,0.607104 0.707102,1.214195 0.889587,1.821299c0.364962,1.214195 0.570244,2.091105 0.615863,2.630754c0.182486,0.944377 0.342148,2.900572 0.479006,5.868626l-0.205282,11.838427c-0.045619,1.281663 -0.182486,2.495845 -0.410582,3.642599c-0.319343,1.416572 -0.638678,2.394657 -0.958012,2.934306c-0.182486,0.269831 -0.410582,0.505916 -0.684297,0.708279c-0.273724,0.202377 -0.479015,0.337286 -0.615872,0.40474c1.00364,0.337273 1.938838,1.551455 2.80562,3.642586c0.319334,0.674559 0.524625,1.11302 0.615863,1.315384l0.136858,0.40474c0.045619,0.134909 0.091247,0.303539 0.136866,0.505903c0.182477,0.876936 0.319334,2.158572 0.410573,3.844963c0.091238,1.686403 0.136858,2.698222 0.136858,3.035495c0.045619,0.94439 0.068433,2.529566 0.068433,4.755619c0,1.484027 0.022814,2.630754 0.068433,3.440222l0.068424,3.642599c0,0.876922 -0.022805,1.45028 -0.068424,1.720111l-0.205291,2.023663c-0.136858,1.349117 -0.25091,2.192293 -0.342148,2.529579l-0.10265,0.303552c-0.022805,0.067455 -0.057022,0.134909 -0.102641,0.202364c-0.091238,0.472182 -0.182477,0.775734 -0.273715,0.910643c-0.319343,1.011845 -0.821154,1.922475 -1.50546,2.731943c-0.091238,0.067455 -0.193879,0.185503 -0.307932,0.354146c-0.114052,0.168643 -0.262313,0.320412 -0.444789,0.455322l-0.889587,0.505916c-1.094878,0.53965 -1.733547,0.809468 -1.916033,0.809468c-0.182477,0.067455 -0.479006,0.101188 -0.889587,0.101188c-0.182477,0.067455 -0.433387,0.101175 -0.752721,0.101175l-2.189748,-0.202364l-4.311071,-0.505916c-0.319343,0 -0.570244,-0.202364 -0.75273,-0.607104zm3.489917,-64.251304l0.136858,1.214208l0.068433,2.833118l0.136858,3.440235l0.136858,4.148502c-0.045619,0.202377 -0.068433,0.775734 -0.068433,1.720124l0,5.767437l-0.068424,5.463885c0,0.944377 0.045619,1.484027 0.136858,1.618936l0.958012,0l0.889587,0.101175c0.410582,0 0.786938,-0.067455 1.129095,-0.202364c0.342148,-0.134909 0.604461,-0.236098 0.786938,-0.303552l0.479006,-0.303539c0.273724,-0.202377 0.50182,-0.607104 0.684297,-1.214208l0.205291,-0.404727c0.136858,-0.337273 0.25091,-1.079286 0.342148,-2.226027c0,-0.067455 0.011403,-0.202364 0.034217,-0.40474c0.022805,-0.202364 0.034217,-0.505916 0.034217,-0.910643c0.045619,-0.809468 0.068424,-2.394657 0.068424,-4.755606l-0.068424,-2.428404c0,-5.936106 -0.319343,-9.646121 -0.958021,-11.130147c-0.136858,-0.337273 -0.456192,-0.72514 -0.958012,-1.163601c-0.50182,-0.438461 -0.935207,-0.758874 -1.300169,-0.961237c-0.364954,-0.134909 -0.570244,-0.202364 -0.615863,-0.202364c-0.045619,0 -0.114052,0.01686 -0.205291,0.050581c-0.091238,0.033734 -0.228096,0.050594 -0.410573,0.050594c-0.593067,0 -1.117683,0.067455 -1.573884,0.202364zm2.463463,31.265603l-1.916024,0c-0.045619,0.134909 -0.057031,0.303552 -0.034217,0.505916c0.022805,0.202364 0.034217,0.404727 0.034217,0.607091l0,0.809468l0.068424,2.226027l0,6.981646c-0.091238,1.618936 -0.136858,3.204125 -0.136858,4.755606l0,2.023663l-0.068433,9.308848l0,-1.720111c0,0.202364 -0.011403,0.792594 -0.034208,1.770705c-0.022814,0.978111 -0.011411,1.534608 0.034208,1.669517l0.821163,0c0.136858,0.067455 0.307932,0.118049 0.513223,0.151783c0.205291,0.033721 0.353551,0.050581 0.444789,0.050581c0.821163,0.134922 1.254541,0.202377 1.30016,0.202377c0.684306,-0.134922 1.277355,-0.371007 1.779175,-0.708279c0.091238,-0.067468 0.342148,-0.337286 0.75273,-0.809468l0.54743,-0.607104l0.479015,-1.011832c0.319334,-1.214195 0.524625,-4.182209 0.615863,-8.90412l0,-3.237858c0,-0.674559 -0.022814,-1.28165 -0.068433,-1.821299c-0.045619,-0.539637 -0.068424,-0.843189 -0.068424,-0.910643c-0.045619,-0.809468 -0.091238,-1.416559 -0.136858,-1.821299c-0.045619,-0.404727 -0.091247,-0.910643 -0.136866,-1.517747c-0.045619,-0.337273 -0.091238,-0.640825 -0.136858,-0.910643c-0.045619,-0.269831 -0.091238,-0.57337 -0.136858,-0.910656c-0.228096,-1.821299 -0.456201,-3.001761 -0.684297,-3.54141l-0.615863,-1.214195c-0.228105,-0.337273 -0.524625,-0.640825 -0.889587,-0.910643c-0.364962,-0.337286 -1.140489,-0.505916 -2.326614,-0.505916zm14.067339,-34.199909c0,-0.472195 0.114044,-0.876922 0.342148,-1.214195l0.273715,-0.202364l0.273715,-0.303552l0.205291,0l0.958021,0.101175l0.684297,-0.101175c0.319334,0 0.570244,0.101175 0.752721,0.303552c0.045619,0.067455 0.091238,0.151769 0.136858,0.252958c0.045619,0.101175 0.091247,0.18549 0.136866,0.252958c0.091238,0.202364 0.136858,0.370994 0.136858,0.505916l0,0.404727c0.045619,0.337273 0.068424,0.978098 0.068424,1.922475l0.068433,1.315384l0,0.40474c-0.045619,0.539637 -0.022814,2.529553 0.068433,5.969801c0.182477,4.654444 0.250901,8.634276 0.205282,11.939615l-0.068424,1.416559l0.068424,1.315384c0.045619,0.472195 0.057031,1.062426 0.034217,1.770705c-0.022805,0.708279 -0.034217,1.231056 -0.034217,1.568342l0.068433,0.101175l0.684297,-0.101175l1.505451,-0.202377l0.205291,0l0.615863,-0.101175l4.174213,-0.505916l0.068433,-0.505916l-0.068433,-1.821299l0,-1.113007c0.045619,-0.472195 0.057022,-1.045565 0.034217,-1.720124c-0.022814,-0.674559 -0.034217,-1.146741 -0.034217,-1.416559l-0.068433,-4.452054c0.045619,-0.202377 0.068433,-1.787566 0.068433,-4.755619l0,-1.113007c0,-1.349117 0.022814,-2.192306 0.068433,-2.529579l-0.068433,-1.315384l-0.068433,-2.731943l0,-0.40474c0.045619,-0.134909 0.068433,-0.438448 0.068433,-0.910643c0,-0.53965 -0.022814,-1.011832 -0.068433,-1.416559l0.068433,-2.22604c0,-0.337273 0.022814,-0.57337 0.068433,-0.708279l0.273715,-0.505916l0.136858,-0.101175c0.273724,-0.269831 0.50182,-0.40474 0.684297,-0.40474l0.684297,0c0.136858,-0.067455 0.330746,-0.084315 0.581656,-0.050594c0.25091,0.033734 0.421984,0.050594 0.513223,0.050594c0.182477,0 0.307932,0.050594 0.376365,0.151783l0.171074,0.252958c0.410573,0.607091 0.615863,1.045552 0.615863,1.315371c-0.045619,0.607104 -0.068433,2.259748 -0.068433,4.957983l0,5.969801l-0.068424,2.023663l0.068424,3.844963l0,4.350878l0.068433,11.433686l0,5.565087l0.068433,10.421855l0,0.505916l-0.068433,2.428404l0,0.910643c0.045619,0.742013 0.068433,1.720111 0.068433,2.934319l0,2.529566c-0.045619,0.269831 -0.057031,0.522789 -0.034217,0.758874c0.022805,0.236098 0.034217,0.455335 0.034217,0.657698l0,1.011832l-0.068433,6.374541l0,0.607091c0,0.202377 -0.068433,0.472195 -0.205291,0.809468c0,0.202364 -0.045619,0.371007 -0.136858,0.505916c-0.182477,0.269818 -0.456192,0.404727 -0.821154,0.404727l-1.779175,0c-0.136858,0 -0.296529,-0.067455 -0.479006,-0.202364l-0.410582,-0.303552l-0.136858,-0.303539c-0.045619,-0.202377 -0.068424,-0.472195 -0.068424,-0.809468l0,-2.327215c0,-1.618936 0.022805,-2.900572 0.068424,-3.844963c0.045619,-0.944377 0.068433,-2.192293 0.068433,-3.743774c0,-1.68639 -0.022814,-2.934306 -0.068433,-3.743774l0,-4.047326c-0.045619,-0.337286 -0.068424,-0.742013 -0.068424,-1.214195l0,-11.838427l-0.068433,-2.529592c-0.273724,0 -0.524625,0.033734 -0.75273,0.101188c-0.228096,0.067455 -0.433387,0.067455 -0.615863,0l-3.010902,0.202364c-0.912402,0 -1.847599,0.101188 -2.80562,0.303552l0.068433,2.833131l0,1.618936c0,5.059171 -0.022814,9.173912 -0.068433,12.344342l0,3.237858c0,0.337273 -0.045619,1.045552 -0.136858,2.124852c0,0.539637 -0.045619,1.61891 -0.136858,3.237858l-0.068433,4.654417c-0.045619,0.674559 -0.068433,1.416559 -0.068433,2.22604c0,0.809468 0.022814,1.416559 0.068433,1.821286c0,0.202377 -0.022814,0.337286 -0.068433,0.40474c0,0.134909 -0.034208,0.286679 -0.102641,0.455322c-0.068433,0.168643 -0.125455,0.286679 -0.171074,0.354146c-0.228096,0.337273 -0.50182,0.505916 -0.821154,0.505916l-0.615872,0c-0.50182,0 -0.79834,0.033721 -0.889579,0.101175c-0.136866,0.067455 -0.25091,0.084328 -0.342148,0.050594c-0.091247,-0.033734 -0.159672,-0.050594 -0.205291,-0.050594c-0.182486,0 -0.307932,-0.084315 -0.376365,-0.252958c-0.068433,-0.168643 -0.125455,-0.286679 -0.171074,-0.354133c-0.228096,-0.337286 -0.342148,-0.742013 -0.342148,-1.214208l0,-1.821286c0,-0.134922 0.045619,-0.691419 0.136858,-1.66953c0.091238,-0.978111 0.114052,-1.568342 0.068433,-1.770705l0,-0.708279l0.205291,-4.957983l0,-6.475717c0.045619,-1.821299 0.068424,-5.396404 0.068424,-10.725407l0,-7.184009l0.136858,-2.327215l-0.068424,-1.416559c-0.045619,-0.40474 -0.068433,-0.910643 -0.068433,-1.517747l-0.068424,-3.237858l0,-3.237871l-0.136866,-2.226027l-0.068424,-1.214195l-0.136858,-16.695221zm21.799885,9.207672c0.045619,-0.472195 0.136858,-1.365978 0.273715,-2.681362c0.136858,-1.315384 0.319334,-2.344076 0.547439,-3.086089c0.045619,-0.202364 0.114044,-0.472182 0.205291,-0.809455c0.091238,-0.337286 0.205282,-0.640825 0.342148,-0.910656c0.182477,-0.472195 0.364954,-0.893783 0.54743,-1.264789c0.182486,-0.371007 0.342148,-0.72514 0.479015,-1.062426c0.228096,-0.472182 0.433387,-0.775734 0.615863,-0.910643c0.228096,-0.134909 0.433387,-0.320412 0.615863,-0.55651c0.182486,-0.236098 0.387768,-0.421588 0.615872,-0.55651c0.821154,-0.607091 1.84759,-0.944377 3.079335,-1.011832c0.593058,0 1.368585,0.151783 2.326605,0.455335c0.958021,0.303539 1.573884,0.623951 1.847599,0.961237c0.319343,0.404727 0.65008,0.893783 0.992237,1.467153c0.342148,0.57337 0.581647,1.028692 0.718504,1.365978c0.364962,0.809468 0.661492,1.517734 0.889587,2.124838c0.228105,0.53965 0.479006,1.450293 0.75273,2.731943c0.228096,0.876936 0.387768,1.517747 0.479006,1.922488c0.684297,3.979885 1.117683,8.87036 1.30016,14.671558l-0.068424,1.113007c0,0.674559 0.045619,1.821286 0.136858,3.440235c0.136858,1.888754 0.205291,3.912404 0.205291,6.070989c0,4.317171 -0.022814,7.453814 -0.068433,9.410023l-0.068424,1.214208c0,2.698222 -0.068433,5.261508 -0.205291,7.689912c-0.091238,1.686403 -0.376365,3.929264 -0.855371,6.728688c-0.479015,2.79941 -0.832566,4.435193 -1.060662,4.907375c-0.273724,0.742013 -0.524625,1.349117 -0.75273,1.821299c-0.775535,1.484027 -1.687919,2.462124 -2.737187,2.934306c-0.364954,0.202377 -0.775526,0.371007 -1.231727,0.505916c-0.456201,0.134922 -0.798349,0.202377 -1.026445,0.202377l-0.889587,0c-0.410582,0 -1.163303,-0.101188 -2.258181,-0.303552c-0.547439,-0.067455 -1.003631,-0.236098 -1.368593,-0.505916l-0.342148,-0.303552l-1.026445,-1.011832c-0.729916,-0.944377 -1.322974,-2.057384 -1.779175,-3.339047c-0.182477,-0.337273 -0.342148,-0.843189 -0.479006,-1.517747c-0.228096,-1.011832 -0.410573,-2.02365 -0.547439,-3.035495c-0.410573,-2.563313 -0.707102,-6.47569 -0.889579,-11.737238l-0.068433,-1.011832c0,-1.146754 0.011403,-2.040523 0.034217,-2.681362c0.022805,-0.640825 0.034217,-1.129867 0.034217,-1.467153c0.045619,-0.53965 0.068424,-1.551468 0.068424,-3.035495l0,-5.463885l-0.068424,-2.124852l0.068424,-4.047326c0,-0.674559 -0.011403,-1.484013 -0.034217,-2.42839c-0.022805,-0.94439 -0.011403,-1.989929 0.034217,-3.136683c0.091238,-2.158585 0.136858,-3.642586 0.136858,-4.452054c0.273724,-4.249716 0.387768,-6.239632 0.342148,-5.969814l0.136866,-1.315371zm11.769902,48.66909c0.091238,-0.53965 0.136858,-0.876922 0.136858,-1.011832c0,-0.269818 0.045619,-0.674546 0.136858,-1.214195c0.410582,-3.575157 0.638678,-7.757353 0.684297,-12.546719l0,-10.826595l-0.136858,-3.844949l-0.205291,-6.981646l-0.273715,-4.24969c-0.091238,-0.742013 -0.182477,-1.85502 -0.273724,-3.339047c0.045619,-0.809468 -0.045619,-1.989929 -0.273715,-3.54141c-0.228096,-1.551481 -0.433387,-2.765663 -0.615863,-3.642586c-0.273724,-1.416572 -0.661492,-2.664488 -1.163311,-3.743787c-0.136858,-0.202364 -0.330737,-0.455322 -0.581647,-0.758874c-0.25091,-0.303552 -0.467603,-0.522776 -0.65008,-0.657685c-0.136866,-0.134909 -0.319343,-0.219237 -0.547439,-0.252958c-0.228105,-0.033734 -0.410582,-0.050594 -0.547439,-0.050594c-0.136858,0 -0.39917,0.118049 -0.786938,0.354146c-0.387776,0.236098 -0.650089,0.387867 -0.786947,0.455322c-0.319334,0.269818 -0.570244,0.55651 -0.752721,0.860062c-0.182486,0.303539 -0.319343,0.72514 -0.410582,1.264789c-0.091238,0.337273 -0.25091,1.281637 -0.479006,2.833118l-0.273724,3.642599c-0.091238,1.214208 -0.136858,2.259748 -0.136858,3.136683l-0.136858,3.237858c-0.045619,0.472182 -0.068433,1.146741 -0.068433,2.023663c0,1.079286 0.022814,1.85502 0.068433,2.327202c0,0.40474 0.011403,0.910656 0.034217,1.517747c0.022805,0.607104 0.011403,1.28165 -0.034217,2.023676l0,7.588724c0,0.53965 -0.011403,1.231069 -0.034217,2.074257c-0.022805,0.843202 -0.011403,1.83816 0.034217,2.984914l0,2.124838c0,0.472195 -0.011403,1.028692 -0.034217,1.66953c-0.022805,0.640825 -0.011403,1.399685 0.034217,2.276608l-0.068433,6.070989l0.068433,0.708293c0.045619,2.091131 0.159672,4.081047 0.342148,5.969801c0.045619,0.269831 0.057022,0.53965 0.034217,0.809468c-0.022814,0.269818 -0.011403,0.505916 0.034217,0.708279l0.136858,0.809468c0.319334,1.551481 0.684297,2.664488 1.094869,3.339047c0.136866,0.202364 0.479006,0.505916 1.026445,0.910643c0.091247,0 0.171074,0.050594 0.239507,0.151783c0.068433,0.101175 0.171074,0.151769 0.307932,0.151769c0.182486,0.067455 0.570244,0.101175 1.163303,0.101175c0.136866,0 0.285127,0.016873 0.444798,0.050594c0.159672,0.033734 0.330737,0.016873 0.513223,-0.050594c0.729916,-0.404727 1.254541,-0.944364 1.573884,-1.618923c0.182477,-0.269818 0.296529,-0.53965 0.342148,-0.809468l0.342148,-1.011832c0.045619,-0.202364 0.114044,-0.522776 0.205282,-0.961237c0.091247,-0.438461 0.182486,-0.792608 0.273724,-1.062426zm20.499716,4.452067c0.091247,0.067455 0.216693,0.219224 0.376365,0.455322c0.159672,0.236098 0.239507,0.387867 0.239507,0.455322c0.045619,0.134909 0.068424,0.303552 0.068424,0.505916l0,2.023663c0,0.202364 -0.068424,0.472182 -0.205282,0.809468l-0.205291,0.303539c0,0.067468 -0.114052,0.134922 -0.342148,0.202377c-0.273724,0.134909 -0.593058,0.202364 -0.958021,0.202364c-0.136858,0 -0.250901,0.033721 -0.342148,0.101175l-1.026445,0c-0.136858,0 -0.467594,0.016873 -0.992228,0.050594c-0.524625,0.033734 -0.878176,0.016873 -1.060662,-0.050594l-3.010902,0l-0.821154,0.101188l-0.615872,0c-0.364954,0 -0.615863,-0.16863 -0.752721,-0.505916c-0.045619,0 -0.091238,-0.134909 -0.136858,-0.404727c-0.045619,-0.269831 -0.091247,-0.910643 -0.136866,-1.922488c0,-0.067455 0.011411,-0.185503 0.034217,-0.354133c0.022814,-0.168643 0.011403,-0.320412 -0.034217,-0.455335l-0.068424,-0.505916l-0.068433,-3.946138c-0.045619,-0.53965 -0.068424,-1.180461 -0.068424,-1.922475l-0.068433,-20.944911l0,-6.779282c-0.091238,-0.742013 -0.022814,-7.420028 0.205291,-20.034254l0.068424,-6.576905l0,-4.047326c0,-0.067468 -0.011403,-0.286692 -0.034208,-0.657698c-0.022814,-0.371007 0.034208,-0.623965 0.171074,-0.758874c0.182477,-0.134909 0.421975,-0.286679 0.718504,-0.455322c0.296538,-0.168643 0.467603,-0.219237 0.513223,-0.151769l1.437027,0c0.228105,0 0.410582,0.067455 0.547439,0.202364c0.045619,0 0.136858,0.101175 0.273715,0.303552l0.342148,0.505916l0,0.607091l0.068433,1.11302l-0.342148,9.106484l0,10.118316l-0.068433,3.237858l0.068433,3.237858l0,7.184009l-0.068433,4.755606c0,1.618936 0.045619,3.642586 0.136858,6.070989l0.068433,4.148515l0.068433,4.856781c0.045619,0.269831 0.045619,0.623965 0,1.062426c-0.045628,0.438461 -0.045628,0.961237 0,1.568342l0.136858,7.082821l1.916033,0l1.916024,-0.101188c0.456201,-0.067455 0.866773,-0.067455 1.231736,0c0.364962,0.067455 0.638678,0.134909 0.821154,0.202377zm11.740725,-35.211741l0.821154,1.517747l0.410582,0.708279c1.551079,3.170417 2.668754,6.172152 3.35305,9.005296l0.479015,1.720111c0.045619,0.067468 0.102641,0.320412 0.171074,0.758887c0.068424,0.438461 0.14826,1.062413 0.239499,1.871881c0.091238,0.472195 0.182477,1.180461 0.273724,2.124852l0.136858,3.642586l0,4.452067c0,2.22604 -0.022814,3.67632 -0.068433,4.350865c0,0.472195 -0.045619,1.079286 -0.136858,1.821299l-0.342148,2.023663c-0.136858,0.94439 -0.25091,1.551481 -0.342148,1.821299l-0.342148,1.416559c-0.182477,0.53965 -0.364954,0.978111 -0.547439,1.315384l-1.026445,1.821299c-0.319334,0.607104 -0.764124,1.045565 -1.334377,1.315384c-0.570253,0.269818 -1.265944,0.505916 -2.087107,0.708279c-0.228096,0.067455 -0.593049,0.101188 -1.094869,0.101188c-0.456201,0 -0.821154,-0.067455 -1.094878,-0.202364c-0.273724,-0.134922 -0.593058,-0.252958 -0.958012,-0.354146c-0.364962,-0.101188 -0.786947,-0.320412 -1.265952,-0.657685c-0.479006,-0.337286 -1.288749,-1.045565 -2.429255,-2.124852l-0.684297,-0.910643c-0.228096,-0.269831 -0.342148,-0.607104 -0.342148,-1.011845c0,-0.404727 0.182477,-0.775734 0.547439,-1.113007c0.136858,-0.269818 0.307932,-0.57337 0.513223,-0.910643c0.205291,-0.337286 0.353551,-0.607104 0.444789,-0.809468c0.045619,-0.134909 0.136866,-0.236098 0.273724,-0.303552c0.136858,-0.067455 0.273715,-0.101188 0.410573,-0.101188c0.136866,0 0.228105,0.033734 0.273724,0.101188c0.091238,0.134909 0.216693,0.286679 0.376365,0.455322c0.159663,0.168643 0.285118,0.320412 0.376356,0.455322c0.091247,0.134922 0.273724,0.371007 0.547439,0.708293c0.273724,0.337273 0.547439,0.573357 0.821154,0.708279c1.049259,0.607104 1.824794,0.910643 2.326614,0.910643c0.821154,0 1.44842,-0.337273 1.881816,-1.011832c0.433387,-0.674559 0.764124,-1.618923 0.992228,-2.833131c0,-0.067455 0.022805,-0.151769 0.068433,-0.252958c0.045619,-0.101175 0.068424,-0.252958 0.068424,-0.455322l0.205291,-2.934306c0.045619,-0.674559 0.068433,-1.585202 0.068433,-2.731943c0,-1.618949 -0.045619,-3.237858 -0.136866,-4.856794c-0.045619,-0.337286 -0.068424,-1.315371 -0.068424,-2.934319c-0.045619,-0.876922 -0.25091,-2.310329 -0.615872,-4.300284c-0.364954,-1.989942 -0.752721,-3.389628 -1.163303,-4.199096c-0.912402,-2.428404 -1.528256,-3.912417 -1.847599,-4.452067c-0.729916,-1.28165 -1.619495,-3.069202 -2.668754,-5.362697l-0.821163,-2.124852c-1.687937,-3.979885 -2.554701,-7.487535 -2.60032,-10.523043c-0.045628,-1.618936 -0.068433,-3.946138 -0.068433,-6.981646c0.228105,-2.833144 0.570244,-5.160333 1.026445,-6.981633c0.273724,-1.484027 0.821154,-2.664488 1.642309,-3.54141c0.821163,-0.876922 1.824785,-1.349104 3.010911,-1.416559l1.163303,-0.101188c0.684297,0 1.231736,0.16863 1.642309,0.505916c1.368602,0.944377 2.144128,1.484013 2.326614,1.618936c0.136858,0.134909 0.285118,0.354133 0.444789,0.657685c0.159672,0.303552 0.262313,0.590231 0.307932,0.860062c0.136866,0.337273 0.205291,0.590231 0.205291,0.758874c0,0.16863 -0.091238,0.354133 -0.273715,0.556497c-0.182486,0.202377 -0.353551,0.489055 -0.513223,0.860062c-0.159672,0.371007 -0.285127,0.72514 -0.376365,1.062426c-0.045619,0.134909 -0.114052,0.269818 -0.205291,0.404727c-0.091238,0.134909 -0.182477,0.236098 -0.273715,0.303552c-0.182486,0 -0.364962,-0.067455 -0.547439,-0.202364c-0.50182,-0.742013 -1.026445,-1.315384 -1.573884,-1.720111c-0.410582,-0.337286 -0.843959,-0.505916 -1.30016,-0.505916l-0.547439,0c-0.50182,0.067455 -0.90099,0.370994 -1.197519,0.910643c-0.296529,0.53965 -0.581647,1.315371 -0.855371,2.327215c-0.091238,0.269818 -0.159672,1.062413 -0.205291,2.377796c-0.045619,1.315397 -0.068424,2.175446 -0.068424,2.580173c0,0.337286 -0.022814,0.623965 -0.068433,0.860062c-0.045619,0.236098 -0.068433,0.556497 -0.068433,0.961237c0,0.472195 -0.011403,0.994958 -0.034208,1.568342c-0.022814,0.57337 -0.011411,1.264776 0.034208,2.074257l0.75273,4.148502c0.182477,0.944377 0.39917,1.652656 0.65008,2.124852c0.25091,0.472182 0.421984,0.843189 0.513223,1.113007c0.364962,0.876936 1.163303,2.360936 2.395038,4.452067zm19.062698,41.080353l-7.527264,-0.404727c-0.136858,0 -0.307932,-0.084315 -0.513223,-0.252958c-0.205291,-0.168643 -0.353551,-0.320412 -0.444789,-0.455322c-0.136858,0 -0.205291,-0.438461 -0.205291,-1.315384l0,-2.226027l0.205291,-4.957983l0.068424,-9.915939l0,-4.047326c0.045619,-0.067468 0.068433,-0.876922 0.068433,-2.428404l0,-0.809468l0.068433,-4.047326l0,-8.297016c0,-0.944377 0.034208,-2.765663 0.102641,-5.463885c0.068433,-2.698235 0.079836,-4.485787 0.034217,-5.36271c0,-0.472195 -0.011403,-1.146741 -0.034217,-2.023663c-0.022805,-0.876922 -0.057022,-1.618923 -0.102641,-2.226027c-0.045619,-0.269831 -0.045619,-0.505916 0,-0.708279c0.045619,-0.202377 0.068424,-0.337286 0.068424,-0.40474c0,-2.563313 -0.034217,-4.26655 -0.102641,-5.109752c-0.068433,-0.843189 -0.10265,-1.399699 -0.10265,-1.669517c0,-1.484027 -0.022805,-2.630754 -0.068424,-3.440222l0,-2.22604c0,-0.742013 0.068424,-1.315371 0.205291,-1.720111c0.091238,-0.134909 0.239499,-0.286679 0.444789,-0.455322c0.205291,-0.168643 0.376365,-0.252958 0.513223,-0.252958c0.045619,0 0.159672,-0.01686 0.342148,-0.050594c0.182477,-0.033721 0.364954,-0.01686 0.547439,0.050594l1.642309,0c0.638686,0 1.186117,0.033721 1.642317,0.101188l2.874044,0.101175c0.958021,0 1.995859,0.033734 3.113552,0.101188c1.117683,0.067455 1.904621,0.101175 2.360822,0.101175c0.410582,0 0.707102,0.168643 0.889587,0.505916c0.182477,0.202377 0.273715,0.57337 0.273715,1.11302l0,1.821299c0,0.742013 -0.114044,1.180461 -0.342148,1.315384c-0.364962,0.269818 -0.638678,0.404727 -0.821154,0.404727l-0.684297,-0.101188l-2.531896,-0.101175l-3.489917,-0.202364l-2.874044,0l0.273715,8.49938l0,2.327215c-0.045619,0.202364 -0.057022,0.775734 -0.034217,1.720111c0.022814,0.944377 0.034217,1.618923 0.034217,2.023663c0,0.202364 -0.034217,1.079273 -0.102641,2.630767c-0.068433,1.551481 -0.079836,2.394657 -0.034217,2.529566c0.045619,0.202377 0.045619,0.792608 0,1.770718c-0.045619,0.978098 -0.068433,1.703238 -0.068433,2.175433l-0.068424,2.023663l1.984457,-0.101188l2.258181,0c0.410582,0 0.707102,0.134909 0.889587,0.40474c0.228096,0.472182 0.342148,0.876909 0.342148,1.214195l0,1.821299c0,0.134909 -0.068433,0.404727 -0.205291,0.809468l-0.136858,0.404727c-0.228105,0.337273 -0.524625,0.505916 -0.889587,0.505916l-2.600329,0.202364l-1.642309,0.101188l0,6.779269c0,4.654444 0.022805,7.116542 0.068424,7.386373c0.045619,1.28165 0.057031,3.052342 0.034217,5.312116c-0.022805,2.259761 -0.034217,3.895544 -0.034217,4.907375l-0.273715,3.946151l0.889587,0.202364c0.045619,0 0.342139,0.033721 0.889587,0.101188c0.547439,0.067455 1.140489,0.101175 1.779166,0.101175l5.132225,0.101188c0.364962,-0.067455 0.707111,-0.067455 1.026445,0c0.319343,0.067455 0.547439,0.101175 0.684297,0.101175c0.319343,0 0.593058,0.168643 0.821154,0.505916l0.273724,0.40474l0,0.910643l0.068424,1.720111c0,0.40474 -0.159663,0.843202 -0.479006,1.315384c-0.182477,0.269818 -0.410573,0.40474 -0.684297,0.40474c-0.091238,0.067455 -0.307932,0.067455 -0.65008,0c-0.342148,-0.067468 -0.581656,-0.101188 -0.718513,-0.101188l-0.615863,0l-3.832065,-0.101188zm11.809158,-0.303552l-0.479015,-0.101175l-0.205282,-0.202364l-0.034217,-0.101188c-0.022814,-0.067455 -0.057022,-0.134909 -0.10265,-0.202364c-0.182477,-0.40474 -0.273715,-0.742013 -0.273715,-1.011832c0,-0.134909 0.022814,-0.387867 0.068433,-0.758874c0.045619,-0.371007 0.045619,-0.826328 0,-1.365978l0.068424,-2.630754c0.045619,-0.607104 0.068433,-1.450293 0.068433,-2.529579c0,-1.079299 0.022805,-2.124852 0.068424,-3.136683l0.068433,-5.463885l0.068433,-2.529579c0.045619,-0.53965 0.068424,-1.315384 0.068424,-2.327215l0.068433,-3.035495l0,-3.237858l-0.068433,-3.035495c0.045619,-0.94439 0.068433,-2.023663 0.068433,-3.237858c0,-1.079299 0.022805,-2.782537 0.068424,-5.109752c0.045619,-2.327228 0.068433,-3.996732 0.068433,-5.008577l0,-0.404727l0.068433,-2.327215l-0.068433,-5.666249l-0.068433,-2.428404l-0.068424,-3.237858l-0.068433,-1.922475l0,-2.529579c0,-0.337286 -0.022805,-0.725153 -0.068424,-1.163614c-0.045628,-0.438461 -0.068433,-0.927504 -0.068433,-1.467153c0,-2.360949 0.114044,-3.71004 0.342148,-4.047326l0.068433,-0.101175c0.228096,-0.269831 0.501811,-0.40474 0.821154,-0.40474c0.045619,0 0.136858,-0.01686 0.273715,-0.050594c0.136866,-0.033721 0.25091,-0.01686 0.342148,0.050594l2.05289,0c0.364962,0 0.661483,-0.01686 0.889587,-0.050594c0.228096,-0.033721 0.387768,-0.050581 0.479006,-0.050581l1.505451,0c0.638686,0 1.094878,0.033721 1.368593,0.101175c0.319343,0.067455 0.684297,0.236098 1.094878,0.505916l1.094878,0.607104l0.752721,0.708279l0.547439,0.809468l0.273715,0.505916c0.50182,0.674559 0.958021,1.888741 1.368593,3.642586l0.273724,0.505916l0.068424,0.40474l0.273724,1.922475c0.045619,0.40474 0.068424,1.045552 0.068424,1.922488c0.136866,0.809468 0.205291,1.349104 0.205291,1.618923c0.091238,1.484027 0.136858,3.237858 0.136858,5.261521c0,3.102975 -0.045619,5.059158 -0.136858,5.868626l-0.068424,2.630767c-0.045619,0.472182 -0.068433,0.961237 -0.068433,1.467153c0,0.505916 -0.022814,0.927517 -0.068433,1.264789c-0.045619,0.202364 -0.057022,0.404727 -0.034208,0.607091c0.022805,0.202377 0.011403,0.40474 -0.034217,0.607104c-0.228105,1.888767 -0.50182,3.271592 -0.821154,4.148515l-0.684297,1.416559c-0.547448,1.079299 -0.980826,1.720111 -1.300169,1.922475c-0.273715,0.134922 -0.570244,0.286692 -0.889587,0.455335c-0.319334,0.16863 -0.661483,0.320412 -1.026445,0.455322c0,0.067455 -0.034208,0.084315 -0.102641,0.050594c-0.068433,-0.033734 -0.102641,-0.016873 -0.102641,0.050594l0.821154,0.404727c0.273715,0.134909 0.479006,0.269818 0.615863,0.404727l0.273724,0.202377c0.136858,0.134909 0.273715,0.286679 0.410573,0.455322c0.136866,0.16863 0.296529,0.354133 0.479006,0.556497c0.273724,0.472195 0.50182,0.910656 0.684297,1.315384c0.182486,0.40474 0.342148,1.011832 0.479015,1.821299l0.136858,0.910656l0.205291,1.416559c0,0.134909 0.034208,0.387867 0.102641,0.758874c0.068433,0.371007 0.102641,0.691419 0.102641,0.961237c0.045619,1.079299 0.171074,3.187251 0.376365,6.323947c0.205291,3.136696 0.39917,5.615655 0.581656,7.436967l0.136858,1.315371c0.045619,0.269831 0.091238,0.489055 0.136858,0.657698c0.045619,0.168643 0.068433,0.286679 0.068433,0.354146l0.479006,2.529566l0.068433,1.416572l0,0.404727l-0.068433,0.202364c0,0.067468 0.011403,0.118049 0.034217,0.151783c0.022805,0.033734 0.011403,0.084315 -0.034217,0.151769l-0.068433,0.202364c-0.136858,0.269831 -0.364954,0.40474 -0.684297,0.40474l-1.710742,0l-0.615863,-0.101188c-0.091238,-0.067455 -0.216693,-0.101175 -0.376365,-0.101175c-0.159672,0 -0.262313,-0.033734 -0.307932,-0.101188c-0.045619,0 -0.068433,-0.033721 -0.068433,-0.101188c0,-0.067455 -0.022805,-0.134909 -0.068424,-0.202364c-0.045619,0 -0.057031,-0.01686 -0.034217,-0.050594c0.022805,-0.033721 0.011403,-0.084315 -0.034217,-0.151769c0,-0.067455 -0.022805,-0.101188 -0.068424,-0.101188c-0.045628,0 -0.068433,-0.033721 -0.068433,-0.101175c-0.091238,-0.269818 -0.136858,-0.438461 -0.136858,-0.505916c-0.045619,-0.134909 -0.125455,-0.489055 -0.239507,-1.062426c-0.114044,-0.57337 -0.216693,-1.264789 -0.307932,-2.074257l0,-1.011832l-0.342148,-2.630754l-0.205291,-1.821299l-0.205291,-2.731943c-0.045619,-0.269831 -0.102641,-0.691419 -0.171074,-1.264789c-0.068424,-0.573383 -0.102641,-1.062426 -0.102641,-1.467166c-0.091238,-0.742 -0.171074,-2.00679 -0.239507,-3.794368c-0.068424,-1.787566 -0.102641,-2.984887 -0.102641,-3.591992c-0.182477,-1.484027 -0.387768,-2.630767 -0.615863,-3.440235c-0.091247,-0.269818 -0.159672,-0.438461 -0.205291,-0.505916c-0.045619,-0.202364 -0.125455,-0.370994 -0.239507,-0.505916c-0.114044,-0.134909 -0.193879,-0.269818 -0.239499,-0.404727c-0.091247,-0.202364 -0.273724,-0.438461 -0.547439,-0.708279l-0.273724,-0.303552l-0.410573,-0.404727l-0.273724,-0.202377l-0.205282,0l-0.410582,-0.101175l-0.821154,0c-0.091238,0.067455 -0.171074,0.084315 -0.239507,0.050594c-0.068424,-0.033734 -0.125455,-0.050594 -0.171074,-0.050594l-0.068424,-0.050594c-0.045619,-0.033734 -0.091238,-0.01686 -0.136866,0.050594l0.205291,8.094652l-0.410573,17.909416l0,1.11302l-0.068433,1.618923c-0.091238,0.607104 -0.228096,1.045565 -0.410582,1.315384c-0.182477,0.202364 -0.456192,0.303552 -0.821154,0.303552l-1.779166,-0.202377zm3.35305,-65.566675l0,1.214195l0.205291,2.529579l0.136858,3.339047l0,3.743774c-0.045619,0.53965 -0.079836,1.332244 -0.102641,2.377809c-0.022814,1.045552 -0.034217,1.939335 -0.034217,2.681348l0.068424,2.226027l0.068433,6.47573c0,1.146741 -0.034217,2.394657 -0.102641,3.743774c-0.068433,1.349117 -0.057031,2.057384 0.034208,2.124838l0.068433,0.101188l0.684297,-0.101188l0.615863,0c0.091247,0 0.262313,0.016873 0.513223,0.050594c0.25091,0.033734 0.444798,0.01686 0.581656,-0.050594c0.136858,-0.067455 0.239507,-0.134909 0.307932,-0.202364c0.068433,-0.067455 0.193888,-0.134909 0.376365,-0.202364l0.821154,-0.607104l0.547439,-0.607091l0.273715,-0.505916l0.136866,-0.607104c0.182477,-0.607104 0.433387,-3.001748 0.752721,-7.184009l0.136858,-2.731943c0,-4.519534 -0.068424,-7.723633 -0.205282,-9.6124l-0.273724,-2.833118c-0.091238,-1.079299 -0.182477,-1.871894 -0.273715,-2.377809c-0.091238,-0.505916 -0.228096,-0.927517 -0.410582,-1.264789c-0.593058,-1.079299 -1.551061,-1.720111 -2.874044,-1.922475l-2.05289,0.202364zm27.958555,-2.630767c0.045619,-0.472195 0.228096,-0.876922 0.547439,-1.214195c0.228096,-0.269818 0.524625,-0.404727 0.889587,-0.404727l1.710742,0c0.364954,0 0.593049,0.16863 0.684297,0.505916c0.045619,0.067455 0.068424,0.269818 0.068424,0.607091l-0.068424,2.124852l-0.205291,2.934306l-0.410582,4.856794c-0.045619,1.349117 -0.296529,4.182209 -0.752721,8.49938c-0.045619,0.40474 -0.079836,0.893783 -0.10265,1.467166c-0.022805,0.57337 -0.034217,0.961237 -0.034217,1.163601c0,0.202364 -0.045619,0.505916 -0.136858,0.910643c-0.045619,0.269831 -0.079836,0.640825 -0.102641,1.11302c-0.022814,0.472195 -0.057031,0.843189 -0.10265,1.11302l-0.342148,2.934306l-0.273715,3.237858c-0.091238,0.53965 -0.262313,1.85502 -0.513223,3.946138c-0.25091,2.091131 -0.490408,4.350865 -0.718513,6.779282c-0.273715,2.630767 -0.524625,5.261508 -0.752721,7.892276c-0.228105,2.63078 -0.387768,4.452054 -0.479015,5.463898l-0.136858,0.910643l-0.205291,1.618936l-0.068424,1.315384l-0.068433,0.607091c-0.091238,1.214208 -0.239499,2.833118 -0.444789,4.856794c-0.205291,2.023676 -0.353551,3.136683 -0.444798,3.339047c-0.091238,0.472195 -0.228096,0.843189 -0.410573,1.113007c-0.045619,0 -0.068433,0.033734 -0.068433,0.101188c0,0.067455 -0.022805,0.101188 -0.068424,0.101188c-0.091247,0.067455 -0.228105,0.151769 -0.410582,0.252958c-0.182477,0.101175 -0.342148,0.151769 -0.479006,0.151769l-1.779175,-0.101188c-0.273715,0 -0.501811,-0.067455 -0.684297,-0.202364c-0.319334,-0.202364 -0.513223,-0.472182 -0.581647,-0.809468c-0.068433,-0.337273 -0.10265,-0.539637 -0.10265,-0.607091l-0.342148,-4.047326l-0.410573,-4.65443l-0.273724,-2.833131c-0.045619,-0.674546 -0.091238,-1.28165 -0.136858,-1.821286c-0.045619,-0.53965 -0.068433,-1.011832 -0.068433,-1.416572l-0.205282,-1.922475c-0.045628,-0.269818 -0.114052,-1.011832 -0.205291,-2.226027c-0.091238,-1.214208 -0.159672,-2.023663 -0.205291,-2.428404c-0.045619,-0.337273 -0.102641,-0.961237 -0.171074,-1.871881c-0.068433,-0.910656 -0.171074,-1.939348 -0.307932,-3.086089c-0.319343,-2.76569 -0.479006,-4.08106 -0.479006,-3.946138l-0.958021,-9.6124l-1.30016,-13.356187l-1.642317,-10.624231c-0.091238,-0.472182 -0.182477,-1.146728 -0.273715,-2.023663c-0.091238,-0.876922 -0.136858,-1.450293 -0.136858,-1.720111l0,-0.708279c0.045619,-0.067455 0.057022,-0.134909 0.034217,-0.202364c-0.022814,-0.067455 -0.011411,-0.134909 0.034208,-0.202364c0.136866,-0.337286 0.364962,-0.53965 0.684297,-0.607104l1.916033,-0.303552c0.045619,0 0.114052,-0.01686 0.205291,-0.050594c0.091238,-0.033721 0.205291,-0.01686 0.342148,0.050594l0.410582,0.303552l0.205282,0.303552c0.091247,0.202364 0.193888,0.455322 0.307941,0.758874c0.114044,0.303552 0.171074,0.590231 0.171074,0.860049c0.136858,0.607104 0.285118,1.551468 0.444789,2.833131c0.159672,1.281663 0.285127,2.192306 0.376365,2.731943l0.205291,2.124852c0.182477,1.416572 0.29652,2.42839 0.342148,3.035495c0.045619,0.134909 0.114044,0.708279 0.205282,1.720111c0.091247,1.011845 0.136866,1.68639 0.136866,2.023663l0.136858,1.720111c0.136858,0.809468 0.205291,1.416572 0.205291,1.821299c0.045619,0.134909 0.079836,0.371007 0.102641,0.708279c0.022814,0.337286 0.057022,0.742013 0.102641,1.214208l0.342148,2.630754c0.50182,4.654457 0.935207,9.544919 1.300169,14.671558c0.364954,4.721911 0.593058,7.487548 0.684297,8.297016c0.228096,2.900599 0.342148,5.69997 0.342148,8.398205l0.205291,3.136683l0.068424,0.708279l0.136858,0l0.068433,-0.910643l0,-1.214208l0.068433,-1.821299c0.136858,-3.440235 0.29652,-6.239606 0.479006,-8.398191l1.573884,-18.718884l0.205282,-3.237871c0.136866,-0.944377 0.205291,-1.720098 0.205291,-2.327202l0.205291,-2.428404l0.068433,-0.505916c0.136858,-1.011832 0.205282,-1.85502 0.205282,-2.529579c0.136866,-1.349117 0.307941,-3.15353 0.513223,-5.413291c0.205291,-2.259774 0.35356,-3.861823 0.444798,-4.8062l0.479006,-4.65443zm10.303698,-1.922475l3.079335,-0.101188c0.593058,0.067455 1.174705,0.067455 1.744958,0c0.570253,-0.067455 0.946609,-0.134909 1.129086,-0.202364c0.273724,0 0.524634,0.16863 0.75273,0.505916c0.228105,0.337273 0.342148,0.708279 0.342148,1.11302l0,0.101175c0,0.472195 -0.114044,0.876922 -0.342148,1.214195c-0.136858,0.269831 -0.387768,0.472195 -0.75273,0.607104c-0.045619,0 -0.159663,0.033721 -0.342148,0.101188c-0.182477,0.067455 -0.387759,0.101175 -0.615863,0.101175l-0.889587,0.202364l0,9.106484l-0.068424,5.969814l0.068424,2.327215l0,1.618923l-0.068424,1.011832l0,1.011832l0.068424,2.428404c0.045619,0.269818 0.057031,0.590231 0.034217,0.961237c-0.022814,0.371007 -0.034217,0.590231 -0.034217,0.657685l0,0.505916l0.068433,5.463885l0,0.303552l-0.068433,2.630767l0.068433,5.261521c0,2.495871 -0.022814,5.531327 -0.068433,9.106484c-0.045619,3.575157 -0.091238,6.340808 -0.136858,8.297016l-0.068433,5.666262l1.026445,0.101175l0.684297,0c0.273724,0.067468 0.524634,0.269831 0.75273,0.607104c0.228096,0.337286 0.342148,0.708279 0.342148,1.11302l0,0.202364c0,0.40474 -0.114052,0.775734 -0.342148,1.113007c-0.228096,0.337286 -0.479006,0.505916 -0.75273,0.505916l-3.216193,0l-1.573884,0.101188l-2.05289,-0.101188l-0.821154,0c-0.319334,0 -0.593058,-0.16863 -0.821154,-0.505916c-0.182477,-0.269818 -0.273715,-0.640812 -0.273715,-1.113007l0,-0.202364c0,-0.472195 0.091238,-0.843202 0.273715,-1.11302c0.182477,-0.269818 0.433387,-0.472182 0.75273,-0.607104l0.479006,0c0.182477,0 0.433387,-0.033721 0.752721,-0.101175c0.319343,-0.067455 0.547439,-0.101188 0.684297,-0.101188l0.068433,-1.821286c0.045619,-0.809481 0.068433,-1.956209 0.068433,-3.440235l0.068424,-10.017127c0.045619,-0.269831 0.045619,-0.809468 0,-1.618936l0.068433,-3.54141c0,-0.607104 0.022805,-1.079286 0.068424,-1.416559l0,-1.315384l-0.068424,-1.315384l0,-4.452054l0.068424,-3.339047l-0.068424,-1.720111l0,-5.059158l0.136858,-6.172178l-0.068433,-2.731943l0,-5.565074l-0.068424,-8.49938c0,-0.067468 -0.034217,-0.134922 -0.10265,-0.202377c-0.068424,-0.067455 -0.14826,-0.067455 -0.239499,0c-0.136858,0 -0.364962,-0.033721 -0.684297,-0.101175c-0.319343,-0.067455 -0.547439,-0.101188 -0.684297,-0.101188c-0.045619,0 -0.205291,-0.101175 -0.479006,-0.303552l-0.273724,-0.202364c-0.182477,-0.269818 -0.273715,-0.674546 -0.273715,-1.214195l0,-0.101188c0,-0.472182 0.091238,-0.843189 0.273715,-1.113007c0.228105,-0.337286 0.479006,-0.505916 0.75273,-0.505916l0.958012,-0.101188l0.684297,0.101188zm24.810796,62.430005l0.889579,1.315384c0.228105,0.202364 0.307941,0.505916 0.239507,0.910643c-0.068433,0.40474 -0.171074,0.775734 -0.307932,1.11302c-0.547439,1.214195 -1.482637,2.360936 -2.80562,3.440222c-0.182477,0.202364 -0.456192,0.354146 -0.821154,0.455322c-0.364962,0.101188 -0.615863,0.185503 -0.75273,0.252958c-0.182477,0.067455 -0.39917,0.168643 -0.65008,0.303552c-0.25091,0.134909 -0.513223,0.202364 -0.786938,0.202364c-1.094878,0 -2.030076,-0.16863 -2.80562,-0.505916c-0.410582,-0.202364 -0.729916,-0.455322 -0.958012,-0.758874c-0.228105,-0.303552 -0.387768,-0.489042 -0.479006,-0.55651l-0.547439,-0.708279c-1.049259,-1.484027 -1.870413,-3.3053 -2.463472,-5.463885c-0.364962,-1.214208 -0.615863,-2.833118 -0.752721,-4.856794l-0.273724,-2.327215c-0.136858,-0.742013 -0.205291,-1.517734 -0.205291,-2.327202c0,-0.472195 -0.057022,-1.062426 -0.171074,-1.770705c-0.114044,-0.708293 -0.193879,-1.298523 -0.239499,-1.770705c-0.136866,-1.956222 -0.239507,-4.232816 -0.307932,-6.829876c-0.068433,-2.597047 -0.10265,-5.00855 -0.10265,-7.23459c0,-1.618936 -0.022805,-2.934306 -0.068424,-3.946138c0,-0.809468 -0.011411,-1.922475 -0.034217,-3.339047c-0.022814,-1.416572 -0.011411,-2.462124 0.034217,-3.136683c0.045619,-0.337273 0.068424,-0.708279 0.068424,-1.113007c0,-0.202377 -0.011403,-0.455322 -0.034217,-0.758874c-0.022805,-0.303552 -0.011403,-0.758874 0.034217,-1.365978c0.045619,-0.404727 0.114052,-1.686377 0.205291,-3.844963c0.091238,-2.158585 0.159672,-3.440222 0.205291,-3.844949c0.364954,-3.305339 0.786938,-5.531353 1.265944,-6.678094c0.479015,-1.146754 0.741327,-1.787566 0.786947,-1.922475l1.094869,-2.22604c0.273724,-0.674559 0.684297,-1.28165 1.231736,-1.821286c0.273724,-0.40474 0.729916,-0.843202 1.368593,-1.315384c0.364962,-0.269831 0.775535,-0.40474 1.231736,-0.40474c0.273724,0 0.558842,0.033734 0.855371,0.101188c0.296529,0.067455 0.65008,0.101188 1.060662,0.101188c0.410582,0 0.935198,0.067455 1.573884,0.202364c0.547439,0.202364 1.04925,0.472182 1.505451,0.809468c0.729916,0.472182 1.30016,0.978098 1.710742,1.517747c0.091238,0.134909 0.296529,0.607091 0.615863,1.416559c0.136866,0.404727 0.205291,0.742013 0.205291,1.011832c0,0.134909 -0.045619,0.337273 -0.136858,0.607104c-0.045619,0.067455 -0.136858,0.219224 -0.273724,0.455322c-0.136858,0.236098 -0.228096,0.455322 -0.273715,0.657685l-0.273715,0.708279c-0.319343,0.472195 -0.570253,0.708293 -0.75273,0.708293c-0.045619,0.067455 -0.25091,-0.101188 -0.615863,-0.505916c-0.364962,-0.809481 -0.821154,-1.416572 -1.368593,-1.821299c-0.821163,-0.674559 -1.482646,-1.011832 -1.984466,-1.011832c-0.912402,0 -1.573875,0.236084 -1.984457,0.708279c-0.273724,0.337273 -0.638678,1.045552 -1.094878,2.124852c-0.50182,1.349104 -0.912393,4.0473 -1.231736,8.094652c-0.319334,4.047339 -0.524625,8.499354 -0.615863,13.356174c0.091238,9.915991 0.307932,17.268565 0.65008,22.057931c0.342148,4.789353 0.65008,7.858542 0.923804,9.207659c0.045619,0.337286 0.171074,0.978098 0.376365,1.922488c0.205291,0.944377 0.444789,1.618923 0.718504,2.023663c0.638686,0.944377 1.437027,1.349104 2.395038,1.214195c1.00364,-0.202364 1.710742,-0.505916 2.121323,-0.910656c0.638678,-0.539637 1.140489,-1.247916 1.505451,-2.124838c0.136866,-0.337286 0.296529,-0.505916 0.479006,-0.505916l0.136866,0c0.228096,0 0.456192,0.236084 0.684297,0.708279zm14.135755,7.993464l-7.527264,-0.404727c-0.136858,0 -0.307932,-0.084315 -0.513223,-0.252958c-0.205291,-0.168643 -0.353551,-0.320412 -0.444789,-0.455322c-0.136858,0 -0.205291,-0.438461 -0.205291,-1.315384l0,-2.226027l0.205291,-4.957983l0.068433,-9.915939l0,-4.047326c0.045619,-0.067468 0.068424,-0.876922 0.068424,-2.428404l0,-0.809468l0.068433,-4.047326l0,-8.297016c0,-0.944377 0.034217,-2.765663 0.102641,-5.463885c0.068433,-2.698235 0.079836,-4.485787 0.034217,-5.36271c0,-0.472195 -0.011403,-1.146741 -0.034217,-2.023663c-0.022805,-0.876922 -0.057022,-1.618923 -0.102641,-2.226027c-0.045619,-0.269831 -0.045619,-0.505916 0,-0.708279c0.045619,-0.202377 0.068424,-0.337286 0.068424,-0.40474c0,-2.563313 -0.034208,-4.26655 -0.102641,-5.109752c-0.068433,-0.843189 -0.102641,-1.399699 -0.102641,-1.669517c0,-1.484027 -0.022814,-2.630754 -0.068433,-3.440222l0,-2.22604c0,-0.742013 0.068424,-1.315371 0.205291,-1.720111c0.091238,-0.134909 0.239499,-0.286679 0.444789,-0.455322c0.205291,-0.168643 0.376365,-0.252958 0.513223,-0.252958c0.045619,0 0.159672,-0.01686 0.342148,-0.050594c0.182486,-0.033721 0.364962,-0.01686 0.547439,0.050594l1.642309,0c0.638686,0 1.186117,0.033721 1.642317,0.101188l2.874044,0.101175c0.958021,0 1.995859,0.033734 3.113552,0.101188c1.117692,0.067455 1.904621,0.101175 2.360822,0.101175c0.410582,0 0.707102,0.168643 0.889587,0.505916c0.182477,0.202377 0.273715,0.57337 0.273715,1.11302l0,1.821299c0,0.742013 -0.114044,1.180461 -0.342148,1.315384c-0.364954,0.269818 -0.638678,0.404727 -0.821154,0.404727l-0.684297,-0.101188l-2.531896,-0.101175l-3.489917,-0.202364l-2.874044,0l0.273715,8.49938l0,2.327215c-0.045619,0.202364 -0.057022,0.775734 -0.034208,1.720111c0.022805,0.944377 0.034208,1.618923 0.034208,2.023663c0,0.202364 -0.034208,1.079273 -0.102641,2.630767c-0.068433,1.551481 -0.079836,2.394657 -0.034217,2.529566c0.045619,0.202377 0.045619,0.792608 0,1.770718c-0.045619,0.978098 -0.068424,1.703238 -0.068424,2.175433l-0.068433,2.023663l1.984457,-0.101188l2.258181,0c0.410582,0 0.707111,0.134909 0.889587,0.40474c0.228105,0.472182 0.342148,0.876909 0.342148,1.214195l0,1.821299c0,0.134909 -0.068424,0.404727 -0.205291,0.809468l-0.136858,0.404727c-0.228105,0.337273 -0.524625,0.505916 -0.889587,0.505916l-2.600329,0.202364l-1.642309,0.101188l0,6.779269c0,4.654444 0.022814,7.116542 0.068433,7.386373c0.045619,1.28165 0.057022,3.052342 0.034208,5.312116c-0.022805,2.259761 -0.034208,3.895544 -0.034208,4.907375l-0.273724,3.946151l0.889587,0.202364c0.045619,0 0.342148,0.033721 0.889587,0.101188c0.547439,0.067455 1.140489,0.101175 1.779166,0.101175l5.132225,0.101188c0.364962,-0.067455 0.707111,-0.067455 1.026445,0c0.319343,0.067455 0.547439,0.101175 0.684297,0.101175c0.319343,0 0.593058,0.168643 0.821163,0.505916l0.273715,0.40474l0,0.910643l0.068433,1.720111c0,0.40474 -0.159672,0.843202 -0.479015,1.315384c-0.182477,0.269818 -0.410573,0.40474 -0.684297,0.40474c-0.091238,0.067455 -0.307932,0.067455 -0.65008,0c-0.342148,-0.067468 -0.581647,-0.101188 -0.718513,-0.101188l-0.615863,0l-3.832065,-0.101188z"/>
                </g>
            </g>
        </g>
    </g>
</svg>